# xmcd
#
# Track frame offsets:
# 150
# 11657
# 25119
# 36384
# 51920
# 64337
# 75172
# 92761
# 110114
# 122410
#
# Disc length: 1788 seconds
#
#
# Revision: 3
# Processed by: cddbd v1.5.2PL0 Copyright (c) Steve Scherf et al.
# Submitted via: FreeRIP 2.951 
#
DISCID=7b06fa0a
DTITLE=Various Artist - Country Love Disc 3 of 3
DYEAR=2003
DGENRE=Country
TTITLE0=Sammi Smith - Help Me Make It Through the Night
TTITLE1=David Houston - Almost Persuaded
TTITLE2=Wynn Stewart - It's Such A Pretty World Today
TTITLE3=Judy Rodman - I'll Be Your Baby Tonight
TTITLE4=BJ Thomas - I Can't Help It (If I'm Still In Love With You)
TTITLE5=Narvel Felts - Everlasting Love
TTITLE6=Lynn Anderson - Close to You
TTITLE7=Al Hirt and Ace Cannon - Always On My Mind
TTITLE8=Johnny Rodriguez - Love Put A Song In My Heart
TTITLE9=Patsy Cline - Today, Tomorrow, and Forever
EXTD=
EXTT0=
EXTT1=
EXTT2=
EXTT3=
EXTT4=
EXTT5=
EXTT6=
EXTT7=
EXTT8=
EXTT9=
PLAYORDER=
